<svg xmlns="http://www.w3.org/2000/svg" width="250" height="250" viewBox="0 0 250 250">
<!-- SVG created with Arrow, by QuiverAI (https://quiver.ai) -->
  <path d="m124.6 13.22c-5.5 0-9.44 0.07-11.43 0.61l-1.17 0.33-3.5 16.11c-6.53 1.96-9.43 3.45-14.3 6.71l-14.23-9.5c-6.92 5.14-12.36 10.77-17.19 17.83l8.62 13.66c-3.35 5.9-4.5 8.49-6.03 15.22l-15.57 3.42-0.98 6.32 44.08 19.93c-2.02-5-3.14-7.79-3.02-14.25 0.47-18.28 15.13-35.93 34.4-35.93 20.43 0 35.46 15.59 35.46 35.33 0 6.1-1.4 10.4-2.9 14.6l42.76-20.38-0.45-5.49-15.1-3.01c-2-6.3-3.28-9.54-6.45-14.92l8.58-14.5c-5.47-7.1-9.51-10.86-16.59-17l-14.32 9.42c-5.35-3.09-9.24-4.62-15.56-6.62l-3.5-17.28c-2.43-0.36-6.71-0.61-11.61-0.61z" fill="#C04A22" stroke="#FDF9EA" stroke-miterlimit="2.613" stroke-width=".7087"/>
  <path d="m30.21 83.23-29.2 33.67 94.31 41.51 23.66-34.51-88.77-40.67z" fill="#C04A22" stroke="#FDF9EA" stroke-miterlimit="2.613" stroke-width=".7087"/>
  <path d="m218.8 83.23-89.14 40.67 23.66 34.51 90.31-41.51-24.83-33.67z" fill="#C04A22" stroke="#FDF9EA" stroke-miterlimit="2.613" stroke-width=".7087"/>
  <path d="m29.64 135.3v57.31l94.87 44.16 95.07-44.62v-56.45l-8.8 4.6v45.65l-82.07 38.86v-87.7l-4-7.71-25.65 39.78-69.42-33.88z" fill="#C04A22" stroke="#FDF9EA" stroke-miterlimit="2.613" stroke-width=".7087"/>
</svg>